<svg id="Layer_1" data-name="Layer 1" xmlns="http://www.w3.org/2000/svg" viewBox="0 0 153 43.385">
  <title>ustwo-logo</title>
  <g id="Page-1">
    <g id="Logo">
      <path id="ustwo" d="M55.229,13.314a23.869,23.869,0,0,0-2.958-1.658,3.976,3.976,0,0,0-4.03.357,10.045,10.045,0,0,0-2.091,2.015L28.272,33.742l1.836-6.911L33.373,17.6H33.347l0.026-.051c0.969-3.009.255-3.6-2.525-5.483l-0.281-.2c-1.836-1.25-2.729-.561-3.366,1.3L25.7,16.3,10.088,29.866l4.489-12.828c0.459-1.428.357-2.168-.969-3.086L10.5,11.834c-1.148-.791-2.142-0.638-3.417.077L3.253,14.1c-1.173.663-1.454,1.326-.485,1.989l3.7,2.525L0.295,36.675c-0.459,1.428-.459,2.448.561,3.137l3.52,2.4c1.428,0.969,1.887.536,2.7-.2L21.922,28.233l-2.3,5.968c-1.4,4.361-1.173,4.82,1.811,6.86a26.446,26.446,0,0,0,2.448,1.581c1.454,0.408,2.372-.383,3.622-1.887L48.446,17.037,48.318,35.578l-3.162-1.352c-1.173-.51-2.55-1.071-2.576.791V38.18a4.005,4.005,0,0,0,2.321,3.7l2.117,0.893c1.658,0.714,2.423.918,4.081,0,0.1-.051,3.545-1.989,3.6-2.04a3.242,3.242,0,0,0,2.066-3.009l0.051-1.607,0.179-18.567C56.989,15.073,56.352,14.079,55.229,13.314Zm95.843-.2a3.334,3.334,0,0,0-3.009-1.377,5.354,5.354,0,0,0-2.805.791l-2.882,1.709c-1.173.663-1.454,1.326-.485,1.989l3.724,2.525c0.357,0.281.179,4.259-1.071,7.677a21.427,21.427,0,0,1-4.31,7.6c-1.836,2.142-4.769,4.234-6.86,3.111-2.219-1.2-2.142-4.693.485-10.763a78.372,78.372,0,0,1,4.081-7.473c1.1-1.913.536-3.571-1.275-4.973l-2.576-1.913c-1.785-1.148-4.157-1.046-6.172.969l-16.7,17.572,2.831-9.13,0.765-1.913c0.969-3.009-.077-3.6-2.856-5.483l-0.281-.2c-1.836-1.25-2.729-.561-3.366,1.3l-0.026.077L92.592,29.866,96.673,17.42c0.791-2.448-1.25-3.775-3.571-5.356S89.634,11.5,87.7,13.722L69.818,33.742l6.937-21.627c0.714-2.193.255-2.984-.995-3.877l-2.7-1.454h44.5c1.02,0,1.122-.612.612-1.658L116.489,1.71A2.455,2.455,0,0,0,114.066,0H29.216C28.2,0,28.094.613,28.6,1.659l1.683,3.417A2.487,2.487,0,0,0,32.71,6.785H69.894L61.1,34.227c-1.4,4.361-1.173,4.82,1.811,6.86s3.749,2.5,6.07-.332l20.25-23.412L82.773,36.522c-0.638,2.066-.459,2.831.51,3.494,1.071,0.74,1.76,1.2,3.035,2.066s1.836,1.046,3.468-.485l15.991-15.226-4.106,10.15c-0.816,2.6-.485,2.933,1.862,4.514l1.454,0.995c1.4,0.893,2.321,1.122,3.7-.434L129.42,19.282a49.849,49.849,0,0,0-3.468,7.141c-1.938,5.789-2.576,14.843,5.228,16.45a14.257,14.257,0,0,0,3.137.357c11.12-.383,17.138-11.6,18.414-20.479C153.546,17.088,152.373,14.614,151.072,13.11Z" transform="translate(0 0)" style="fill: #fff"/>
    </g>
  </g>
</svg>
